<svg xmlns="http://www.w3.org/2000/svg" height="48" viewBox="0 96 960 960" width="48"><path d="M433.231 752.077H278q-73.072 0-124.575-51.533-51.502-51.533-51.502-124.649 0-73.115 51.502-124.544Q204.928 399.923 278 399.923h155.231v43.769H278q-55.256 0-93.782 38.457-38.526 38.457-38.526 93.616 0 55.158 38.526 93.85 38.526 38.693 93.782 38.693h155.231v43.769Zm-98.539-154.692v-43.77h291.385v43.77H334.692Zm192.077 154.692v-43.769H682q55.256 0 93.782-38.457 38.526-38.457 38.526-93.616 0-55.158-38.526-93.85-38.526-38.693-93.782-38.693H526.769v-43.769H682q73.072 0 124.575 51.533 51.502 51.533 51.502 124.649 0 73.115-51.502 124.544Q755.072 752.077 682 752.077H526.769Z" fill="#FFF"/></svg>