<svg xmlns="http://www.w3.org/2000/svg" xmlns:xlink="http://www.w3.org/1999/xlink" version="1.1" width="1080" height="1080" viewBox="0 0 1080 1080" xml:space="preserve">
<g transform="matrix(1 0 0 1 540 540)" id="5075143d-d193-46f5-aa2b-5541213606db"  >
<rect style="stroke: none; stroke-width: 1; stroke-dasharray: none; stroke-linecap: butt; stroke-dashoffset: 0; stroke-linejoin: miter; stroke-miterlimit: 4; fill: rgb(255,255,255); fill-rule: nonzero; opacity: 1; visibility: hidden;" vector-effect="non-scaling-stroke"  x="-540" y="-540" rx="0" ry="0" width="1080" height="1080" />
</g>
<g transform="matrix(1 0 0 1 540 540)" id="8687d618-7e60-415d-b134-98c389af9a4e"  >
</g>
<g transform="matrix(1.35 0 0 1.35 545.11 545.1)" id="fc8aacf6-9693-4e7e-95ca-3586b55c1280"  >
<path style="stroke: rgb(0,0,0); stroke-width: 0; stroke-dasharray: none; stroke-linecap: butt; stroke-dashoffset: 0; stroke-linejoin: miter; stroke-miterlimit: 4; fill: rgb(255,255,255); fill-rule: nonzero; opacity: 1;" vector-effect="non-scaling-stroke"  transform=" translate(-517.13, 516.48)" d="M 480 -121.154 Q 405.846 -121.154 340.135 -148.769 Q 274.423 -176.38400000000001 225.404 -225.404 Q 176.384 -274.423 148.769 -340.135 Q 121.154 -405.846 121.154 -480 Q 121.154 -553.154 148.904 -618.558 Q 176.654 -683.962 224.904 -732.904 Q 273.154 -781.846 338.808 -810.539 Q 404.461 -839.231 480 -838.846 Q 506.154 -838.846 527.462 -835.808 Q 548.769 -832.769 574.962 -825.654 L 485.808 -787.539 L 699.039 -697.539 L 755.154 -567.115 Q 645.308 -553.962 550.423 -592.692 Q 455.538 -631.423 386.962 -713.962 Q 346.808 -619.885 283.231 -566.615 Q 219.654 -513.346 151.346 -486.231 Q 151.346 -344.923 246.904 -248.135 Q 342.462 -151.346 480 -151.346 Q 619.192 -151.346 713.923 -248.635 Q 808.654 -345.923 808.654 -480 Q 808.654 -495.846 807.365 -507.846 Q 806.077 -519.846 805.231 -527.077 L 826.385 -575.346 Q 832.039 -551.039 835.443 -528.481 Q 838.846 -505.923 838.846 -480 Q 838.846 -405.192 810.789 -339.481 Q 782.731 -273.769 733.654 -225.13400000000001 Q 684.577 -176.5 619.692 -148.827 Q 554.808 -121.154 480 -121.154 Z M 357.308 -387.077 Q 335.962 -387.077 320.846 -402.192 Q 305.731 -417.308 305.731 -438.654 Q 305.731 -460.769 320.846 -475.5 Q 335.962 -490.231 357.308 -490.231 Q 379.423 -490.231 394.154 -475.5 Q 408.885 -460.769 408.885 -438.654 Q 408.885 -417.308 394.154 -402.192 Q 379.423 -387.077 357.308 -387.077 Z M 602.923 -387.077 Q 581.577 -387.077 566.462 -402.192 Q 551.346 -417.308 551.346 -438.654 Q 551.346 -460.769 566.462 -475.5 Q 581.577 -490.231 602.923 -490.231 Q 625.038 -490.231 639.769 -475.5 Q 654.5 -460.769 654.5 -438.654 Q 654.5 -417.308 639.769 -402.192 Q 625.038 -387.077 602.923 -387.077 Z M 790.462 -666.269 L 752.5 -752.269 L 667.577 -789.154 L 752.5 -824.923 L 790.462 -911.808 L 828.192 -824.923 L 913.116 -789.154 L 828.192 -752.269 L 790.462 -666.269 Z" stroke-linecap="round" />
</g>
</svg>